<mxfile host="Electron" agent="Mozilla/5.0 (Windows NT 10.0; Win64; x64) AppleWebKit/537.36 (KHTML, like Gecko) draw.io/26.2.15 Chrome/134.0.6998.205 Electron/35.2.1 Safari/537.36" version="26.2.15">
  <diagram name="第 1 页" id="K03bFQ--ntbfJuTi0hD0">
    <mxGraphModel dx="1426" dy="849" grid="1" gridSize="10" guides="1" tooltips="1" connect="1" arrows="1" fold="1" page="1" pageScale="1" pageWidth="827" pageHeight="1169" math="0" shadow="0">
      <root>
        <mxCell id="0" />
        <mxCell id="1" parent="0" />
        <mxCell id="u3Rg5QCnDu-5LVcDKBBS-2" value="&lt;div style=&quot;line-height: 190%;&quot;&gt;&lt;font style=&quot;font-size: 27px;&quot;&gt;&lt;font style=&quot;color: rgb(255, 0, 0);&quot;&gt;sBlockOfCode&lt;/font&gt; = public void doSomething(String s){&lt;/font&gt;&lt;div&gt;&lt;font style=&quot;font-size: 27px;&quot;&gt;SYstem.out.println(s);&lt;/font&gt;&lt;/div&gt;&lt;div&gt;&lt;font style=&quot;font-size: 27px;&quot;&gt;}&lt;/font&gt;&lt;/div&gt;&lt;/div&gt;" style="rounded=1;whiteSpace=wrap;html=1;sketch=1;curveFitting=1;jiggle=2;" vertex="1" parent="1">
          <mxGeometry x="70" y="390" width="620" height="120" as="geometry" />
        </mxCell>
      </root>
    </mxGraphModel>
  </diagram>
</mxfile>
